<svg xmlns="http://www.w3.org/2000/svg" height="1200" width="1600" version="1.1" xmlns:xlink="http://www.w3.org/1999/xlink" xmlns:svgjs="http://svgjs.com/svgjs">
    <!-- <rect fill="#1e1e1e" width="1600" height="1200"></rect> -->
    <g>
        <path d="M1460.98 426.32C1447.85 389.24 1427.01 355.28 1397.88 327.99 1294.37 230.81 1132.6 223.78 1002.14 259.48 959.42 271.22 918.43 289.07 879.17 309.22 846.12 326.15 814 344.68 780.15 359.65 741.69 374.85 701.97 385.67 661.21 392.01 619.41 396.73 577.27 396.96 535.47 392.24 497.93 386.13 461.55 373.93 424.01 368.29 379.91 361.72 335.58 363.11 293.56 380.03 253.49 396.04 216.64 419.18 187.51 451.54 156.77 485.73 134.55 525.92 121.88 570.02 97.24 656.37 109.22 752.98 149.52 832.77 170.13 873.42 202.83 910.15 242.43 932.94 288.84 959.89 342.84 967.14 394.65 953.78 444.16 940.89 490.8 912.91 536.39 890.23 586.82 865.36 646.47 821.26 704.15 819.87 749.17 818.72 793.96 843.59 835.53 858.1 885.04 875.49 937.09 882.74 989.48 882.05 1035.88 881.36 1082.16 876.18 1128.11 870.77 1243.71 857.41 1361.73 833 1434.5 733.29 1498.75 645.2 1508.65 523.96 1460.98 426.32Z" fill="#4d4d4d" opacity="1" stroke-width="2" stroke="none">
        </path>
    </g>
    <g>
        <path d="M232.24 992.24H313.38" stroke="#f0f0f0" stroke-width="2" stroke-linecap="round" stroke-linejoin="round" opacity="1" fill="none"></path>
        <path d="M325.57 992.24H620.12 789.25" stroke="#f0f0f0" stroke-width="2" stroke-linecap="round" stroke-linejoin="round" opacity="1" fill="none"></path>
        <path d="M842.58 969C829.24 983.28 810.29 992.05 789.15 992.05" stroke="#f0f0f0" stroke-width="2" stroke-linecap="round" stroke-linejoin="round" opacity="1" fill="none"></path>
        <path d="M789.25 845.68C829.63 845.68 862.58 878.43 862.58 919 862.58 933.57 858.39 947.38 850.86 958.81" stroke="#f0f0f0" stroke-width="2" stroke-linecap="round" stroke-linejoin="round" opacity="1" fill="none"></path>
        <path d="M628.59 790.06H1302.83" stroke="#f0f0f0" stroke-width="2" stroke-linecap="round" stroke-linejoin="round" opacity="1" fill="none"></path>
        <path d="M1317.97 790.06H1365.78" stroke="#f0f0f0" stroke-width="2" stroke-linecap="round" stroke-linejoin="round" opacity="1" fill="none"></path>
        <path d="M628.59 790.06C613.26 790.06 600.69 802.63 600.69 817.96 600.69 833.3 613.26 845.87 628.59 845.87H775.92" stroke="#f0f0f0" stroke-width="2" stroke-linecap="round" stroke-linejoin="round" opacity="1" fill="none"></path>
    </g>
    <g>
        <path d="M308.31 409.76H455.06C466.08 409.76 475.09 400.84 475.09 389.72 475.09 378.7 466.17 369.69 455.06 369.69H274.48C263.46 369.69 254.45 378.6 254.45 389.72 254.45 400.75 263.36 409.76 274.48 409.76H294.13" fill="#c5f4e0" opacity="1" stroke-width="2" stroke="none"></path>
        <path d="M308.31 409.76H455.06C466.08 409.76 475.09 400.84 475.09 389.72 475.09 378.7 466.17 369.69 455.06 369.69H274.48C263.46 369.69 254.45 378.6 254.45 389.72 254.45 400.75 263.36 409.76 274.48 409.76H294.13" stroke="#f0f0f0" stroke-width="2" stroke-linecap="round" stroke-linejoin="round" opacity="1" fill="none"></path>
        <path d="M474.9 301.06H585.22C571.99 301.06 561.25 290.33 561.25 277.1 561.25 263.88 571.99 253.14 585.22 253.14L715.38 253.14C728.6 253.14 739.34 263.88 739.34 277.1 739.34 290.33 728.6 301.06 715.38 301.06H766.75C775.67 301.06 782.85 308.25 782.85 317.17 782.85 326.08 775.67 333.27 766.75 333.27H474.9C465.98 333.27 458.79 326.08 458.79 317.17 458.79 308.35 465.98 301.06 474.9 301.06Z" fill="#c5f4e0" stroke="#f0f0f0" stroke-width="2" stroke-linecap="round" stroke-linejoin="round" opacity="1"></path>
    </g>
    <g>
        <path d="M918.62 309.08C910.18 326.67 905.25 346.03 905.25 367.14H837.7C798.29 367.14 766.62 399.16 766.62 438.21 766.62 477.62 798.64 509.29 837.7 509.29H1235.65C1275.06 509.29 1306.73 477.27 1306.73 438.21 1306.73 398.81 1274.71 367.14 1235.65 367.14H1167.74C1167.74 294.65 1108.63 235.54 1036.15 235.54 999.9 235.54 967.18 249.97 943.61 273.54" fill="#2cadbd" opacity="1" stroke-width="2" stroke="none"></path>
        <path d="M918.62 309.08C910.18 326.67 905.25 346.03 905.25 367.14H837.7C798.29 367.14 766.62 399.16 766.62 438.21 766.62 477.62 798.64 509.29 837.7 509.29H1235.65C1275.06 509.29 1306.73 477.27 1306.73 438.21 1306.73 398.81 1274.71 367.14 1235.65 367.14H1167.74C1167.74 294.65 1108.63 235.54 1036.15 235.54 999.9 235.54 967.18 249.97 943.61 273.54" stroke="#f0f0f0" stroke-width="2" stroke-linecap="round" stroke-linejoin="round" opacity="1" fill="none"></path>
        <path d="M1036.85 790.08V608.87" stroke="#f0f0f0" stroke-width="2" stroke-linecap="round" stroke-linejoin="round" opacity="1" fill="none"></path><path d="M993.57 652.5L1036.85 608.87 1080.48 652.5" stroke="#f0f0f0" stroke-width="2" stroke-linecap="round" stroke-linejoin="round" opacity="1" fill="none"></path></g><g><path d="M1274.71 667.57C1274.79 667.57 1274.79 667.57 1274.79 667.49L1274.47 657.33C1274.47 657.25 1274.47 657.25 1274.39 657.25L1219.92 658.76C1219.84 658.76 1219.84 658.76 1219.84 658.84L1220.15 669C1220.15 669.08 1220.15 669.08 1220.23 669.08L1274.71 667.57Z" fill="#197d8f" stroke="#f0f0f0" stroke-width="2" stroke-linecap="round" stroke-linejoin="round" opacity="1"></path>
        <path d="M1307.82 666.7C1307.82 666.62 1307.82 666.62 1307.74 666.62L1214.44 662.81C1214.36 662.81 1214.36 662.81 1214.36 662.89L1213.96 673.05C1213.96 673.05 1213.96 673.13 1214.04 673.13 1250.49 681.15 1279.55 683.3 1307.34 676.94 1307.34 676.94 1307.42 676.94 1307.42 676.86L1307.82 666.7Z" fill="#197d8f" stroke="#f0f0f0" stroke-width="2" stroke-linecap="round" stroke-linejoin="round" opacity="1"></path>
        <path d="M1306.95 685.92C1306.95 685.84 1306.95 685.84 1306.87 685.84L1213.56 680.12H1213.48C1213.48 680.12 1213.48 680.12 1213.48 680.2L1213.09 695.45C1213.09 695.53 1213.09 695.53 1213.17 695.53L1306.47 701.24H1306.55C1306.55 701.24 1306.55 701.24 1306.55 701.16L1306.95 685.92Z" fill="#c5f4e0" stroke="#f0f0f0" stroke-width="2" stroke-linecap="round" stroke-linejoin="round" opacity="1"></path>
        <path d="M1314.57 677.34C1314.57 677.26 1314.57 677.26 1314.49 677.26L1206.81 672.81C1206.73 672.81 1206.73 672.81 1206.73 672.89L1206.34 683.06C1206.34 683.14 1206.34 683.14 1206.42 683.14L1314.09 687.58C1314.17 687.58 1314.17 687.58 1314.17 687.5L1314.57 677.34Z" fill="#c5f4e0" stroke="#f0f0f0" stroke-width="2" stroke-linecap="round" stroke-linejoin="round" opacity="1"></path>
        <path d="M1314.57 692.75C1314.57 692.67 1314.57 692.67 1314.49 692.67L1206.73 692.67C1206.65 692.67 1206.65 692.67 1206.65 692.75V706.8C1206.65 706.88 1206.65 706.88 1206.73 706.88H1314.49C1314.57 706.88 1314.57 706.88 1314.57 706.8V692.75Z" fill="#c5f4e0" stroke="#f0f0f0" stroke-width="2" stroke-linecap="round" stroke-linejoin="round" opacity="1"></path>
        <path d="M1195.62 749.6V789.94C1195.62 790.02 1195.62 790.02 1195.7 790.02H1325.37C1325.45 790.02 1325.45 790.02 1325.45 789.94V702.27C1325.45 702.2 1325.45 702.2 1325.37 702.2H1195.7C1195.62 702.2 1195.62 702.2 1195.62 702.27V739.44" fill="#197d8f" opacity="1" stroke-width="2" stroke="none"></path>
        <path d="M1195.62 749.6V789.94C1195.62 790.02 1195.62 790.02 1195.7 790.02H1325.37C1325.45 790.02 1325.45 790.02 1325.45 789.94V702.27C1325.45 702.2 1325.45 702.2 1325.37 702.2H1195.7C1195.62 702.2 1195.62 702.2 1195.62 702.27V739.44" stroke="#f0f0f0" stroke-width="2" stroke-linecap="round" stroke-linejoin="round" opacity="1" fill="none"></path>
        <path d="M1240.32 728.4H1280.82C1284.16 728.4 1286.86 725.7 1286.86 722.36 1286.86 719.03 1284.16 716.33 1280.82 716.33H1240.32C1236.99 716.33 1234.29 719.03 1234.29 722.36 1234.29 725.7 1236.99 728.4 1240.32 728.4Z" fill="#2cadbd" stroke="#f0f0f0" stroke-width="2" stroke-linecap="round" stroke-linejoin="round" opacity="1"></path>
    </g>
    <g>
        <path d="M544.73 673.7L544.97 581.3 731.46 580.34 544.73 673.7Z" fill="#c5f4e0" stroke="#f0f0f0" stroke-width="2" stroke-linecap="round" stroke-linejoin="round" opacity="1"></path>
        <path d="M514.74 604.04L525.14 581.3 617.54 574.77 731.46 580.34 488.62 660.64 507.48 619.52" fill="#2cadbd" opacity="1" stroke-width="2" stroke="none"></path>
        <path d="M514.74 604.04L525.14 581.3 617.54 574.77 731.46 580.34 488.62 660.64 507.48 619.52" stroke="#f0f0f0" stroke-width="2" stroke-linecap="round" stroke-linejoin="round" opacity="1" fill="none"></path>
        <path d="M488.62 555.42L525.14 581.3 731.46 580.34 488.62 555.42Z" fill="#2cadbd" stroke="#f0f0f0" stroke-width="2" stroke-linecap="round" stroke-linejoin="round" opacity="1"></path>
    </g>
    <g>
        <path d="M416.93 900.23V992.06H412.02L383.36 900.23H416.93Z" fill="#c5f4e0" stroke="#f0f0f0" stroke-width="2" stroke-linecap="round" stroke-linejoin="round" opacity="1"></path>
        <path d="M530.36 853.48V909.99L412.02 992.06V819.24H496.19L530.36 853.48Z" fill="#2cadbd" stroke="#f0f0f0" stroke-width="2" stroke-linecap="round" stroke-linejoin="round" opacity="1"></path>
        <path d="M509.7 915.01L514.27 900.23H568.08L539.53 992.06H412.02L435.98 915.01H509.7Z" fill="#c5f4e0" stroke="#f0f0f0" stroke-width="2" stroke-linecap="round" stroke-linejoin="round" opacity="1"></path>
        <path d="M496.19 853.48H530.36L496.19 819.24V853.48Z" fill="#2cadbd" stroke="#f0f0f0" stroke-width="2" stroke-linecap="round" stroke-linejoin="round" opacity="1"></path>
    </g>
</svg>