<svg xmlns="http://www.w3.org/2000/svg" height="1200" width="1600" version="1.1" xmlns:xlink="http://www.w3.org/1999/xlink" xmlns:svgjs="http://svgjs.com/svgjs">
    <g>
        <path d="M1482.44 720.1C1476.84 689.32 1465.05 659.8 1450.29 632.34 1444 620.67 1436.67 608.66 1434.39 595.5 1430.38 573.42 1440.22 551.91 1446.86 530.51 1513.45 314.49 1278.21 190.46 1099.03 182.45 984.84 177.3 872.25 212.43 779.8 279.59 601.65 221.24 349.01 238.4 268.92 438.4 262.17 455.11 256.91 472.84 245.92 486.92 232.99 503.85 213.54 514.15 196.5 526.73 153.59 558.43 124.07 607.4 115.83 659.92 95.23 793.1 217.66 937.61 349.13 950.43 392.72 954.66 436.66 948.6 478.99 938.18 488.83 935.89 582.43 898.59 581.51 897.56 737.92 1008.78 944.33 1021.59 1129.58 1017.36 1182.09 1016.22 1236.79 1012.21 1285.99 992.99 1385.19 954.32 1484.39 881.09 1486.45 764.61 1486.45 750.08 1485.3 735.09 1482.44 720.1Z" fill="#4d4d4d" opacity="1" stroke-width="2" stroke="none"></path>
    </g>

    <g>
        <path d="M1025.84 141.48H744.77V391.37H1025.84V141.48Z" fill="#79d1cf" stroke="#1e1e1e" stroke-width="2" stroke-linecap="round" stroke-linejoin="round" opacity="1"></path>
        <path d="M1025.84 141.48H744.77V391.37H1025.84V141.48Z" stroke="#1e1e1e" stroke-width="2" stroke-linecap="round" stroke-linejoin="round" opacity="1" fill="none"></path>
    </g>

    <g>
        <path d="M1320.92 315.51H1059.71V611.12H1320.92V315.51Z" fill="#79d1cf" stroke="#1e1e1e" stroke-width="2" stroke-linecap="round" stroke-linejoin="round" opacity="1"></path>
        <path d="M1320.92 315.51H1059.71V611.12H1320.92V315.51Z" stroke="#1e1e1e" stroke-width="2" stroke-linecap="round" stroke-linejoin="round" opacity="1" fill="none"></path>
    </g>

    <!-- phone -->
    <g>
        <path d="M689.2 1068.97H343.78C321.21 1068.97 302.92 1050.68 302.92 1028.11V938.87C302.92 938.74 320.82 786.46 320.82 657.66 320.82 561.41 302.92 400.7 302.92 400.7V356.73C302.92 334.16 321.21 315.87 343.78 315.87H689.2C711.77 315.87 730.06 334.16 730.06 356.73V400.7C729.41 403.17 702.43 526.13 702.43 657.92 702.43 754.42 730.06 938.87 730.06 938.87V1028.11C730.06 1050.55 711.77 1068.97 689.2 1068.97Z" fill="#2cadbd" stroke="#1e1e1e" stroke-width="2" stroke-linecap="round" stroke-linejoin="round" opacity="1"></path>
        <path d="M730.06 400.7H302.92V938.87H730.06V400.7Z" fill="#c5f4e0" stroke="#1e1e1e" stroke-width="2" stroke-linecap="round" stroke-linejoin="round" opacity="1"></path>
        <path d="M539.38 980.51C545.48 986.47 549.24 994.78 549.24 1003.86 549.24 1021.89 534.58 1036.54 516.55 1036.54 498.52 1036.54 483.87 1021.89 483.87 1003.86 483.87 985.83 498.52 971.17 516.55 971.17 522 971.17 527.06 972.47 531.6 974.8" stroke="#1e1e1e" stroke-width="2" stroke-linecap="round" stroke-linejoin="round" opacity="1" fill="none"></path>
        <path d="M473.75 356.86H559.23" stroke="#1e1e1e" stroke-width="2" stroke-linecap="round" stroke-linejoin="round" opacity="1" fill="none"></path>
        <path d="M578.94 356.86H596.19" stroke="#1e1e1e" stroke-width="2" stroke-linecap="round" stroke-linejoin="round" opacity="1" fill="none"></path>
    </g>

    <!-- circuits -->
    <g>
        <path stroke="#F0F0F0" d="M775.18 729.95C778.84 729.95 781.8 726.98 781.8 723.32 781.8 719.66 778.84 716.69 775.18 716.69 771.52 716.69 768.55 719.66 768.55 723.32 768.55 726.98 771.52 729.95 775.18 729.95Z" stroke-width="2" stroke-linecap="round" stroke-linejoin="round" opacity="1" fill="none"></path>
        <path stroke="#F0F0F0" d="M880.52 773.17H922.75" stroke-width="2" stroke-linecap="round" stroke-linejoin="round" opacity="1" fill="none"></path>
        <path stroke="#F0F0F0" d="M781.61 723.32H843.03C850.84 723.32 857.27 729.75 857.27 737.56 857.27 745.38 850.84 751.81 843.03 751.81H837.49C831.56 751.81 826.81 756.55 826.81 762.49 826.81 768.42 831.56 773.17 837.49 773.17H862.61" stroke-width="2" stroke-linecap="round" stroke-linejoin="round" opacity="1" fill="none"></path>
        <path stroke="#F0F0F0" d="M845.5 840.43C849.16 840.43 852.13 837.46 852.13 833.8 852.13 830.14 849.16 827.18 845.5 827.18 841.84 827.18 838.87 830.14 838.87 833.8 838.87 837.46 841.84 840.43 845.5 840.43Z" stroke-width="2" stroke-linecap="round" stroke-linejoin="round" opacity="1" fill="none"></path>
        <path stroke="#F0F0F0" d="M851.83 833.8H902.37" stroke-width="2" stroke-linecap="round" stroke-linejoin="round" opacity="1" fill="none"></path>
        <path stroke="#F0F0F0" d="M925.03 559.82C928.68 559.82 931.65 556.85 931.65 553.19 931.65 549.53 928.68 546.57 925.03 546.57 921.37 546.57 918.4 549.53 918.4 553.19 918.4 556.85 921.37 559.82 925.03 559.82Z" stroke-width="2" stroke-linecap="round" stroke-linejoin="round" opacity="1" fill="none"></path>
        <path stroke="#F0F0F0" d="M918.4 553.19H857.17" stroke-width="2" stroke-linecap="round" stroke-linejoin="round" opacity="1" fill="none"></path>
        <path stroke="#1E1E1E" d="M655.99 559.82C659.65 559.82 662.62 556.85 662.62 553.19 662.62 549.53 659.65 546.57 655.99 546.57 652.33 546.57 649.36 549.53 649.36 553.19 649.36 556.85 652.33 559.82 655.99 559.82Z" stroke-width="2" stroke-linecap="round" stroke-linejoin="round" opacity="1" fill="none"></path>
        <path stroke="#F0F0F0" d="M825.32 553.19H840.36" stroke-width="2" stroke-linecap="round" stroke-linejoin="round" opacity="1" fill="none"></path>
        
        <!-- upper circuit -->
        <path stroke="#F0F0F0" d="M740.85 455.57H765.58C775.67 455.57 783.88 463.78 783.88 473.87V482.27C783.88 493.85 793.18 503.05 804.65 503.05H850.15" stroke-width="2" stroke-linecap="round" stroke-linejoin="round" opacity="1" fill="none"></path>
        <path stroke="#1E1E1E" d="M714.64 455.57H728.49" stroke-width="2" stroke-linecap="round" stroke-linejoin="round" opacity="1" fill="none"></path><path stroke="#f0f0f0" d="M865.28 503.34H911.18" stroke-width="2" stroke-linecap="round" stroke-linejoin="round" opacity="1" fill="none"></path>
        
        <!-- upper circuit 2 -->
        <path stroke="#f0f0f0" d="M735.02 553.19H807.52" stroke-width="2" stroke-linecap="round" stroke-linejoin="round" opacity="1" fill="none"></path>
        <path stroke="#1e1e1e" d="M662.52 553.19H735.02" stroke-width="2" stroke-linecap="round" stroke-linejoin="round" opacity="1" fill="none"></path>
        <path stroke="#1E1E1E" d="M708.11 462.2C711.77 462.2 714.74 459.23 714.74 455.57 714.74 451.91 711.77 448.94 708.11 448.94 704.46 448.94 701.49 451.91 701.49 455.57 701.49 459.23 704.46 462.2 708.11 462.2Z" stroke-width="2" stroke-linecap="round" stroke-linejoin="round" opacity="1" fill="none"></path>
        
        <!-- mid straight circuits front -->
        <path stroke="#F0F0F0" d="M1037.29 768.92H1098.41" stroke-width="2" stroke-linecap="round" stroke-linejoin="round" opacity="1" fill="none"></path>
        <path stroke="#F0F0F0" d="M1065.28 798.79H1098.41" stroke-width="2" stroke-linecap="round" stroke-linejoin="round" opacity="1" fill="none"></path>
        <path stroke="#f0f0f0" d="M1030.66 775.54C1034.32 775.54 1037.29 772.58 1037.29 768.92 1037.29 765.26 1034.32 762.29 1030.66 762.29 1027 762.29 1024.03 765.26 1024.03 768.92 1024.03 772.58 1027 775.54 1030.66 775.54Z" stroke-width="2" stroke-linecap="round" stroke-linejoin="round" opacity="1" fill="none"></path>
        
        <!-- mid round circuit -->
        <path stroke="#f0f0f0" d="M1102.57 695.33H1126.9C1160.23 695.33 1188.13 719.07 1194.65 750.32" stroke-width="2" stroke-linecap="round" stroke-linejoin="round" opacity="1" fill="none"></path>
        <path stroke="#f0f0f0" d="M1196.04 764.56C1196.04 777.32 1192.58 789.49 1186.35 799.78" stroke-width="2" stroke-linecap="round" stroke-linejoin="round" opacity="1" fill="none"></path>
        <path stroke="#f0f0f0" d="M1179.82 809.27C1167.06 824.31 1148.07 833.8 1126.9 833.8H1075.17" stroke-width="2" stroke-linecap="round" stroke-linejoin="round" opacity="1" fill="none"></path>
        
        <!-- mid circuit -->
        <path stroke="#F0F0F0" d="M760.64 629.45H821.76" stroke-width="2" stroke-linecap="round" stroke-linejoin="round" opacity="1" fill="none"></path>
        <path stroke="#F0F0F0" d="M754.01 636.08C757.67 636.08 760.64 633.11 760.64 629.45 760.64 625.79 757.67 622.83 754.01 622.83 750.35 622.83 747.38 625.79 747.38 629.45 747.38 633.11 750.35 636.08 754.01 636.08Z" stroke-width="2" stroke-linecap="round" stroke-linejoin="round" opacity="1" fill="none"></path>
        
        <!-- bottom circuit front -->
        <path stroke="#f0f0f0" d="M1065.87 952H1095.35C1102.77 952 1108.9 946.07 1108.9 938.45 1108.9 931.03 1102.96 924.9 1095.35 924.9H1075.17" stroke-width="2" stroke-linecap="round" stroke-linejoin="round" opacity="1" fill="none"></path>
        <path stroke="#F0F0F0" d="M952.62 952H1013.75 1053.31" stroke-width="2" stroke-linecap="round" stroke-linejoin="round" opacity="1" fill="none"></path>
        
        <!-- bottom circuit behind -->
        <path stroke="#F0F0F0" d="M780.12 918.27H823.25" stroke-width="2" stroke-linecap="round" stroke-linejoin="round" opacity="1" fill="none"></path>
        <path stroke="#f0f0f0" d="M731.36 867.93H782.59C790.01 867.93 795.95 873.86 795.95 881.28 795.95 888.7 790.01 894.63 782.59 894.63H757.87C751.44 894.63 746.1 899.78 746.1 906.4 746.1 912.83 751.24 918.17 757.87 918.17H768.75" stroke-width="2" stroke-linecap="round" stroke-linejoin="round" opacity="1" fill="none"></path>
        <path stroke="#1e1e1e" d="M658.26 867.93H719.39" stroke-width="2" stroke-linecap="round" stroke-linejoin="round" opacity="1" fill="none"></path>
        <path stroke="#1e1e1e" d="M651.64 874.55C655.3 874.55 658.26 871.59 658.26 867.93 658.26 864.27 655.3 861.3 651.64 861.3 647.98 861.3 645.01 864.27 645.01 867.93 645.01 871.59 647.98 874.55 651.64 874.55Z" stroke-width="2" stroke-linecap="round" stroke-linejoin="round" opacity="1" fill="none"></path>
        
        <!-- no effect -->
        <path stroke="#F0F0F0" d="M945.99 958.63C949.65 958.63 952.62 955.66 952.62 952 952.62 948.34 949.65 945.37 945.99 945.37 942.33 945.37 939.37 948.34 939.37 952 939.37 955.66 942.33 958.63 945.99 958.63Z" stroke-width="2" stroke-linecap="round" stroke-linejoin="round" opacity="1" fill="none"></path>
        <path stroke="#F0F0F0" d="M835.41 629.45H931.16" stroke-width="2" stroke-linecap="round" stroke-linejoin="round" opacity="1" fill="none"></path>
    </g>

    <!-- thought bubble -->
    <g>
        <path stroke="#1e1e1e" d="M1027.22 445.33C1059.08 445.33 1084.92 419.5 1084.92 387.64 1084.92 355.78 1059.08 329.94 1027.22 329.94 995.36 329.94 969.53 355.78 969.53 387.64 969.53 419.5 995.36 445.33 1027.22 445.33Z" fill="#2cadbd" stroke-width="2" stroke-linecap="round" stroke-linejoin="round" opacity="1"></path>
        <path stroke="#f0f0f0" d="M1027.22 445.33V464.77C1027.22 481.41 1013.74 494.89 997.1 494.89" stroke-width="2" stroke-linecap="round" stroke-linejoin="round" opacity="1" fill="none"></path>
        <path stroke="#1e1e1e" d="M1049.21 359.95H1005.36V415.33H1049.21V359.95Z" fill="#c5f4e0" stroke-width="2" stroke-linecap="round" stroke-linejoin="round" opacity="1"></path>
        <path stroke="#1e1e1e" d="M1018.24 376.22H1036.21" stroke-width="2" stroke-linecap="round" stroke-linejoin="round" opacity="1" fill="none"></path>
        <path stroke="#1e1e1e" d="M1018.24 387.64H1036.21" stroke-width="2" stroke-linecap="round" stroke-linejoin="round" opacity="1" fill="none"></path>
        <path stroke="#1e1e1e" d="M1018.24 399.18H1036.21" stroke-width="2" stroke-linecap="round" stroke-linejoin="round" opacity="1" fill="none"></path>
    </g>
    
    <g>
        <path d="M684.03 692.22C656.85 625.74 591.32 578.97 514.87 578.97 453.5 578.97 399.37 609.12 366.25 655.42L351.17 680.58C351.17 680.82 350.93 681.06 350.93 681.3 332.65 718.33 360.31 761.66 401.62 761.66H570.19C564.97 761.66 560.34 765.34 559.86 770.57 559.39 776.5 564.02 781.49 569.72 781.49H592.51C592.51 781.49 592.74 781.72 592.51 781.72 587.52 782.67 584.08 787.19 584.55 792.41 585.03 797.63 589.78 801.31 594.88 801.31H620.64L647.35 833.96C649.37 836.45 652.57 837.87 655.78 837.87 663.97 837.87 669.07 829.45 665.63 822.09L636.9 761.78C672.87 761.66 697.57 725.34 684.03 692.22Z" fill="#2cadbd" stroke="#1e1e1e" stroke-width="2" stroke-linecap="round" stroke-linejoin="round" opacity="1"></path>
        <path d="M483.41 665.03V645.92H543.24V705.75H483.41V672.39" fill="#79d1cf" opacity="1" stroke-width="2" stroke="none"></path>
        <path d="M483.41 665.03V645.92H543.24V705.75H483.41V672.39" stroke="#1e1e1e" stroke-width="2" stroke-linecap="round" stroke-linejoin="round" opacity="1" fill="none"></path>
        <path d="M513.33 705.75V726.29" stroke="#1e1e1e" stroke-width="2" stroke-linecap="round" stroke-linejoin="round" opacity="1" fill="none"></path>
        <path d="M483.41 741.36C486.69 741.36 489.35 738.7 489.35 735.43 489.35 732.15 486.69 729.49 483.41 729.49 480.13 729.49 477.48 732.15 477.48 735.43 477.48 738.7 480.13 741.36 483.41 741.36Z" stroke="#1e1e1e" stroke-width="2" stroke-linecap="round" stroke-linejoin="round" opacity="1" fill="none"></path>
        <path d="M530.18 741.6C526.98 741.6 524.25 738.87 524.25 735.67 524.25 732.46 526.98 729.73 530.18 729.73 533.39 729.73 536.12 732.46 536.12 735.67 536.12 737.09 535.65 738.4 534.7 739.35" stroke="#1e1e1e" stroke-width="2" stroke-linecap="round" stroke-linejoin="round" opacity="1" fill="none"></path>
        <path d="M559.86 626.93C563.14 626.93 565.8 624.27 565.8 620.99 565.8 617.72 563.14 615.06 559.86 615.06 556.57 615.06 553.93 617.72 553.93 620.99 553.93 624.27 556.57 626.93 559.86 626.93Z" stroke="#1e1e1e" stroke-width="2" stroke-linecap="round" stroke-linejoin="round" opacity="1" fill="none"></path>
        <path d="M497.3 620.99C500.58 620.99 503.24 618.33 503.24 615.06 503.24 611.78 500.58 609.12 497.3 609.12 494.03 609.12 491.37 611.78 491.37 615.06 491.37 618.33 494.03 620.99 497.3 620.99Z" stroke="#1e1e1e" stroke-width="2" stroke-linecap="round" stroke-linejoin="round" opacity="1" fill="none"></path>
        <path d="M487.45 730.8L496.59 721.89V705.75" stroke="#1e1e1e" stroke-width="2" stroke-linecap="round" stroke-linejoin="round" opacity="1" fill="none"></path>
        <path d="M450.29 696.13C453.57 696.13 456.23 693.48 456.23 690.2 456.23 686.92 453.57 684.26 450.29 684.26 447.01 684.26 444.36 686.92 444.36 690.2 444.36 693.48 447.01 696.13 450.29 696.13Z" stroke="#1e1e1e" stroke-width="2" stroke-linecap="round" stroke-linejoin="round" opacity="1" fill="none"></path>
        <path d="M450.29 667.53C453.57 667.53 456.23 664.87 456.23 661.59 456.23 658.31 453.57 655.65 450.29 655.65 447.01 655.65 444.36 658.31 444.36 661.59 444.36 664.87 447.01 667.53 450.29 667.53Z" stroke="#1e1e1e" stroke-width="2" stroke-linecap="round" stroke-linejoin="round" opacity="1" fill="none"></path>
        <path d="M456.23 690.2H483.41" stroke="#1e1e1e" stroke-width="2" stroke-linecap="round" stroke-linejoin="round" opacity="1" fill="none"></path>
        <path d="M456.23 661.59H483.41" stroke="#1e1e1e" stroke-width="2" stroke-linecap="round" stroke-linejoin="round" opacity="1" fill="none"></path>
        <path d="M576.48 667.53C579.76 667.53 582.42 664.87 582.42 661.59 582.42 658.31 579.76 655.65 576.48 655.65 573.19 655.65 570.55 658.31 570.55 661.59 570.55 664.87 573.19 667.53 576.48 667.53Z" stroke="#1e1e1e" stroke-width="2" stroke-linecap="round" stroke-linejoin="round" opacity="1" fill="none"></path>
        <path d="M576.48 696.13C579.76 696.13 582.42 693.48 582.42 690.2 582.42 686.92 579.76 684.26 576.48 684.26 573.19 684.26 570.55 686.92 570.55 690.2 570.55 693.48 573.19 696.13 576.48 696.13Z" stroke="#1e1e1e" stroke-width="2" stroke-linecap="round" stroke-linejoin="round" opacity="1" fill="none"></path>
        <path d="M570.55 661.59H543.24" stroke="#1e1e1e" stroke-width="2" stroke-linecap="round" stroke-linejoin="round" opacity="1" fill="none"></path>
        <path d="M570.55 690.2H543.24" stroke="#1e1e1e" stroke-width="2" stroke-linecap="round" stroke-linejoin="round" opacity="1" fill="none"></path>
        <path d="M530.18 705.75V729.97" stroke="#1e1e1e" stroke-width="2" stroke-linecap="round" stroke-linejoin="round" opacity="1" fill="none"></path>
        <path d="M530.18 645.92V620.99H553.69" stroke="#1e1e1e" stroke-width="2" stroke-linecap="round" stroke-linejoin="round" opacity="1" fill="none"></path>
        <path d="M497.3 645.92V620.99" stroke="#1e1e1e" stroke-width="2" stroke-linecap="round" stroke-linejoin="round" opacity="1" fill="none"></path>
        <path d="M513.33 645.92V628.11" stroke="#1e1e1e" stroke-width="2" stroke-linecap="round" stroke-linejoin="round" opacity="1" fill="none"></path>
        <path d="M593.93 761.66H610.55" stroke="#1e1e1e" stroke-width="2" stroke-linecap="round" stroke-linejoin="round" opacity="1" fill="none"></path>
        <path d="M570.19 761.66H585.38" stroke="#1e1e1e" stroke-width="2" stroke-linecap="round" stroke-linejoin="round" opacity="1" fill="none"></path>
        <path d="M606.63 781.49H592.51" stroke="#1e1e1e" stroke-width="2" stroke-linecap="round" stroke-linejoin="round" opacity="1" fill="none"></path>
        <path d="M637.02 761.66H625.39" stroke="#1e1e1e" stroke-width="2" stroke-linecap="round" stroke-linejoin="round" opacity="1" fill="none"></path>
    </g>

    <!-- dna helix -->
    <g>
        <path d="M1167.63 574.24C1167.63 520.4 1218.34 520.4 1218.34 466.44 1218.34 412.48 1167.63 412.6 1167.63 358.52" stroke="#1e1e1e" stroke-width="2" stroke-linecap="round" stroke-linejoin="round" opacity="1" fill="none"></path>
        <path d="M1218.34 574.24C1218.34 520.4 1167.63 520.4 1167.63 466.44 1167.63 412.48 1218.34 412.6 1218.34 358.52" stroke="#1e1e1e" stroke-width="2" stroke-linecap="round" stroke-linejoin="round" opacity="1" fill="none"></path>
        <path d="M1177.24 431.47H1208.62" stroke="#1e1e1e" stroke-width="2" stroke-linecap="round" stroke-linejoin="round" opacity="1" fill="none"></path>
        <path d="M1205.14 449.07H1215.8" stroke="#1e1e1e" stroke-width="2" stroke-linecap="round" stroke-linejoin="round" opacity="1" fill="none"></path>
        <path d="M1169.71 449.07H1196.81" stroke="#1e1e1e" stroke-width="2" stroke-linecap="round" stroke-linejoin="round" opacity="1" fill="none"></path>
        <path d="M1167.63 466.44H1218.34" stroke="#1e1e1e" stroke-width="2" stroke-linecap="round" stroke-linejoin="round" opacity="1" fill="none"></path>
        <path d="M1169.71 483.92H1215.8" stroke="#1e1e1e" stroke-width="2" stroke-linecap="round" stroke-linejoin="round" opacity="1" fill="none"></path>
        <path d="M1191.6 501.52H1208.62" stroke="#1e1e1e" stroke-width="2" stroke-linecap="round" stroke-linejoin="round" opacity="1" fill="none"></path>
        <path d="M1148.41 470.38C1149.45 467.6 1151.19 464.7 1153.39 462.5 1162.3 453.7 1176.31 453.7 1185.23 462.5 1194.03 471.42 1194.03 485.43 1185.23 494.34 1176.31 503.26 1162.3 503.26 1153.39 494.34 1148.64 489.71 1146.67 483.58 1146.9 477.55" fill="#c5f4e0" opacity="1" stroke-width="2" stroke="none"></path>
        <path d="M1148.41 470.38C1149.45 467.6 1151.19 464.7 1153.39 462.5 1162.3 453.7 1176.31 453.7 1185.23 462.5 1194.03 471.42 1194.03 485.43 1185.23 494.34 1176.31 503.26 1162.3 503.26 1153.39 494.34 1148.64 489.71 1146.67 483.58 1146.9 477.55" stroke="#1e1e1e" stroke-width="2" stroke-linecap="round" stroke-linejoin="round" opacity="1" fill="none"></path>
        <path d="M1153.39 494L1143.66 503.84" stroke="#1e1e1e" stroke-width="2" stroke-linecap="round" stroke-linejoin="round" opacity="1" fill="none"></path>
        <path d="M1109.85 538C1107.77 535.91 1107.77 531.97 1109.85 529.77L1139.49 500.02 1147.71 508.24 1118.07 537.88C1115.52 539.96 1111.94 539.96 1109.85 538Z" fill="#c5f4e0" stroke="#1e1e1e" stroke-width="2" stroke-linecap="round" stroke-linejoin="round" opacity="1"></path>
    </g>

    <!-- pill -->
    <g>
        <path d="M887.46 288.39L834.26 288.1C820.59 288.1 809.4 277.05 809.4 263.24 809.4 249.58 820.45 238.39 834.26 238.39L887.46 238.68V288.39Z" fill="#2cadbd" stroke="#1e1e1e" stroke-width="2" stroke-linecap="round" stroke-linejoin="round" opacity="1"></path>
        <path d="M885.86 276.18C889.32 276.18 892.11 273.39 892.11 269.93 892.11 266.48 889.32 263.68 885.86 263.68 882.41 263.68 879.61 266.48 879.61 269.93 879.61 273.39 882.41 276.18 885.86 276.18Z" fill="#ffffff" stroke="#1e1e1e" stroke-width="2" stroke-linecap="round" stroke-linejoin="round" opacity="1"></path>
        <path d="M887.17 238.68H940.22C953.89 238.68 965.08 249.87 965.08 263.53 965.08 277.34 953.89 288.39 940.22 288.39H887.17V238.68Z" fill="#c5f4e0" stroke="#1e1e1e" stroke-width="2" stroke-linecap="round" stroke-linejoin="round" opacity="1"></path>
        <path d="M861.58 261.5C865.03 261.5 867.83 258.69 867.83 255.25 867.83 251.79 865.03 249 861.58 249 858.12 249 855.33 251.79 855.33 255.25 855.33 258.69 858.12 261.5 861.58 261.5Z" fill="#ffffff" stroke="#1e1e1e" stroke-width="2" stroke-linecap="round" stroke-linejoin="round" opacity="1"></path>
        <path d="M838.18 276.18C841.64 276.18 844.43 273.39 844.43 269.93 844.43 266.48 841.64 263.68 838.18 263.68 834.74 263.68 831.93 266.48 831.93 269.93 831.93 273.39 834.74 276.18 838.18 276.18Z" fill="#ffffff" stroke="#1e1e1e" stroke-width="2" stroke-linecap="round" stroke-linejoin="round" opacity="1"></path>
    </g>

    <!-- backpack -->
    <g>
        <path d="M789.45 593.48V513.43L856.44 502.5 923.43 513.43V687.66C923.43 697.53 915.53 705.74 905.35 705.74L807.83 705.74C797.96 705.74 789.76 697.84 789.76 687.66V607.61" fill="#c5f4e0" opacity="1" stroke-width="2" stroke="none"></path>
        <path d="M789.45 593.48V513.43L856.44 502.5 923.43 513.43V687.66C923.43 697.53 915.53 705.74 905.35 705.74L807.83 705.74C797.96 705.74 789.76 697.84 789.76 687.66V607.61" stroke="#1e1e1e" stroke-width="2" stroke-linecap="round" stroke-linejoin="round" opacity="1" fill="none"></path>
        <path d="M923.28 513.43V496.88C923.28 488.22 916.29 481.23 907.63 481.23H789.3V513.28L923.28 513.43Z" fill="#79d1cf" stroke="#1e1e1e" stroke-width="2" stroke-linecap="round" stroke-linejoin="round" opacity="1"></path>
        <path d="M805.1 513.16V496.88C805.1 488.22 798.11 481.23 789.45 481.23" stroke="#1e1e1e" stroke-width="2" stroke-linecap="round" stroke-linejoin="round" opacity="1" fill="none"></path>
        <path d="M998.01 705.74L1010.16 727V1068.17H923.28 836.24V705.74L998.01 705.74Z" fill="#197d8f" stroke="#1e1e1e" stroke-width="2" stroke-linecap="round" stroke-linejoin="round" opacity="1"></path>
        <path d="M922.97 1068.17V841.84" stroke="#1e1e1e" stroke-width="2" stroke-linecap="round" stroke-linejoin="round" opacity="1" fill="none"></path>
        <path d="M1010.16 666.55V559.15C1010.16 539.41 994.21 523.61 974.62 523.61H974.32 885.3 854.77C829.4 523.61 809.05 544.27 809.05 569.33V724.42C809.05 744.77 816.34 764.52 829.4 780.01L880.59 841.38 933 792.77 877.71 727H1010.32V682.19" fill="#f0f0f0" opacity="1" stroke-width="2" stroke="none"></path>
        <path d="M1010.16 666.55V559.15C1010.16 539.41 994.21 523.61 974.62 523.61H974.32 885.3 854.77C829.4 523.61 809.05 544.27 809.05 569.33V724.42C809.05 744.77 816.34 764.52 829.4 780.01L880.59 841.38 933 792.77 877.71 727H1010.32V682.19" stroke="#1e1e1e" stroke-width="2" stroke-linecap="round" stroke-linejoin="round" opacity="1" fill="none"></path>
        <path d="M877.56 727V635.1" stroke="#1e1e1e" stroke-width="2" stroke-linecap="round" stroke-linejoin="round" opacity="1" fill="none"></path>
        <path d="M892.59 494.29C899.58 479.41 914.77 471.36 932.24 471.36 949.71 471.36 965.35 478.95 972.34 493.84 975.23 499.61 976.75 506.29 976.75 512.98 976.75 537.43 956.7 557.48 932.24 557.48 924.34 557.48 916.59 555.2 910.37 551.71 897 544.12 887.73 529.53 887.73 512.98 887.73 506.14 889.71 500.07 892.59 494.29Z" fill="#f0f0f0" stroke="#1e1e1e" stroke-width="2" stroke-linecap="round" stroke-linejoin="round" opacity="1"></path>
        <path d="M957.45 515.71V524.07" stroke="#1e1e1e" stroke-width="2" stroke-linecap="round" stroke-linejoin="round" opacity="1" fill="none"></path>
        <path d="M945.3 524.22C945.3 527.41 947.89 530.29 951.38 530.29 954.87 530.29 957.45 527.71 957.45 524.22" stroke="#1e1e1e" stroke-width="2" stroke-linecap="round" stroke-linejoin="round" opacity="1" fill="none"></path>
        <path d="M877.56 628.42V642.85C887.13 642.85 895.02 635.26 895.02 625.38V523.46H877.56V613.69" fill="#c5f4e0" opacity="1" stroke-width="2" stroke="none"></path>
        <path d="M877.56 628.63V643.06C887.13 643.06 895.02 635.47 895.02 625.59V523.67H877.56V613.9" stroke="#1e1e1e" stroke-width="2" stroke-linecap="round" stroke-linejoin="round" opacity="1" fill="none"></path>
        <path d="M887.73 523.61V513.13C887.73 506.14 889.25 499.76 892.14 493.99 899.13 479.1 914.77 468.62 932.24 468.62 949.71 468.62 965.35 479.1 972.34 493.99H958.06C951.99 493.99 947.28 489.28 947.28 483.2 947.28 489.28 942.57 493.99 936.49 493.99H910.37V546.7C910.37 548.22 910.06 550.19 909.76 551.71 907.48 562.19 898.37 570.09 886.82 570.09 874.06 570.09 863.58 559.61 863.58 546.85 863.58 534.39 874.67 523.61 887.73 523.61Z" fill="#197d8f" stroke="#1e1e1e" stroke-width="2" stroke-linecap="round" stroke-linejoin="round" opacity="1"></path>
    </g>
</svg>